<svg xmlns="http://www.w3.org/2000/svg" width="800" height="600" viewBox="0 0 800 600">
<g><text x="-184" y="-118" transform="rotate(-12.139506603593153 -184 -118)" font-family="Cairo, sans-serif" font-weight="800" font-size="22" fill="#2E5C89" opacity="0.045" letter-spacing="2">OXFORD</text><text x="40" y="-107" transform="rotate(-9.49342998914144 40 -107)" font-family="Cairo, sans-serif" font-weight="800" font-size="22" fill="#2E5C89" opacity="0.045" letter-spacing="2">UNIVERSITY</text><text x="317" y="-110" transform="rotate(-11.834645122880604 317 -110)" font-family="Cairo, sans-serif" font-weight="800" font-size="22" fill="#2E5C89" opacity="0.045" letter-spacing="2">Q: SKILLS</text><text x="580" y="-116" transform="rotate(-8.380806150864547 580 -116)" font-family="Cairo, sans-serif" font-weight="800" font-size="22" fill="#2E5C89" opacity="0.045" letter-spacing="2">LISTENING</text><text x="843" y="-118" transform="rotate(-9.118711701709671 843 -118)" font-family="Cairo, sans-serif" font-weight="800" font-size="22" fill="#2E5C89" opacity="0.045" letter-spacing="2">OXFORD</text><text x="-182" y="-8" transform="rotate(-12.629888040803777 -182 -8)" font-family="Cairo, sans-serif" font-weight="800" font-size="22" fill="#2E5C89" opacity="0.045" letter-spacing="2">OXFORD</text><text x="56" y="-1" transform="rotate(-10.513108116203242 56 -1)" font-family="Cairo, sans-serif" font-weight="800" font-size="22" fill="#2E5C89" opacity="0.045" letter-spacing="2">WRITING</text><text x="323" y="-22" transform="rotate(-9.857297488448076 323 -22)" font-family="Cairo, sans-serif" font-weight="800" font-size="22" fill="#2E5C89" opacity="0.045" letter-spacing="2">UNIVERSITY</text><text x="575" y="-2" transform="rotate(-15.645914937083033 575 -2)" font-family="Cairo, sans-serif" font-weight="800" font-size="22" fill="#2E5C89" opacity="0.045" letter-spacing="2">OXFORD</text><text x="820" y="-15" transform="rotate(-14.440373543441162 820 -15)" font-family="Cairo, sans-serif" font-weight="800" font-size="22" fill="#2E5C89" opacity="0.045" letter-spacing="2">WRITING</text><text x="-201" y="94" transform="rotate(-9.823556190836655 -201 94)" font-family="Cairo, sans-serif" font-weight="800" font-size="22" fill="#2E5C89" opacity="0.045" letter-spacing="2">ENGLISH</text><text x="55" y="80" transform="rotate(-12.511752339007021 55 80)" font-family="Cairo, sans-serif" font-weight="800" font-size="22" fill="#2E5C89" opacity="0.045" letter-spacing="2">UNIVERSITY</text><text x="304" y="97" transform="rotate(-9.247456818704784 304 97)" font-family="Cairo, sans-serif" font-weight="800" font-size="22" fill="#2E5C89" opacity="0.045" letter-spacing="2">ENGLISH</text><text x="570" y="74" transform="rotate(-14.093007979576297 570 74)" font-family="Cairo, sans-serif" font-weight="800" font-size="22" fill="#2E5C89" opacity="0.045" letter-spacing="2">OXFORD</text><text x="822" y="91" transform="rotate(-9.456137084562945 822 91)" font-family="Cairo, sans-serif" font-weight="800" font-size="22" fill="#2E5C89" opacity="0.045" letter-spacing="2">SPEAKING</text><text x="-216" y="184" transform="rotate(-14.802494920228789 -216 184)" font-family="Cairo, sans-serif" font-weight="800" font-size="22" fill="#2E5C89" opacity="0.045" letter-spacing="2">READING</text><text x="76" y="173" transform="rotate(-15.09667438484451 76 173)" font-family="Cairo, sans-serif" font-weight="800" font-size="22" fill="#2E5C89" opacity="0.045" letter-spacing="2">WRITING</text><text x="306" y="178" transform="rotate(-8.14448596194686 306 178)" font-family="Cairo, sans-serif" font-weight="800" font-size="22" fill="#2E5C89" opacity="0.045" letter-spacing="2">WRITING</text><text x="572" y="172" transform="rotate(-8.236106967086743 572 172)" font-family="Cairo, sans-serif" font-weight="800" font-size="22" fill="#2E5C89" opacity="0.045" letter-spacing="2">OXFORD</text><text x="848" y="165" transform="rotate(-14.851894282266333 848 165)" font-family="Cairo, sans-serif" font-weight="800" font-size="22" fill="#2E5C89" opacity="0.045" letter-spacing="2">SPEAKING</text><text x="-187" y="251" transform="rotate(-13.863783451572964 -187 251)" font-family="Cairo, sans-serif" font-weight="800" font-size="22" fill="#2E5C89" opacity="0.045" letter-spacing="2">READING</text><text x="59" y="250" transform="rotate(-9.779908884996805 59 250)" font-family="Cairo, sans-serif" font-weight="800" font-size="22" fill="#2E5C89" opacity="0.045" letter-spacing="2">WRITING</text><text x="330" y="262" transform="rotate(-12.522315608044526 330 262)" font-family="Cairo, sans-serif" font-weight="800" font-size="22" fill="#2E5C89" opacity="0.045" letter-spacing="2">ENGLISH</text><text x="560" y="274" transform="rotate(-13.346742218916036 560 274)" font-family="Cairo, sans-serif" font-weight="800" font-size="22" fill="#2E5C89" opacity="0.045" letter-spacing="2">Q: SKILLS</text><text x="840" y="255" transform="rotate(-13.905861768242364 840 255)" font-family="Cairo, sans-serif" font-weight="800" font-size="22" fill="#2E5C89" opacity="0.045" letter-spacing="2">READING</text><text x="-195" y="367" transform="rotate(-12.875304465256928 -195 367)" font-family="Cairo, sans-serif" font-weight="800" font-size="22" fill="#2E5C89" opacity="0.045" letter-spacing="2">WRITING</text><text x="71" y="345" transform="rotate(-11.839122445428696 71 345)" font-family="Cairo, sans-serif" font-weight="800" font-size="22" fill="#2E5C89" opacity="0.045" letter-spacing="2">SPEAKING</text><text x="338" y="361" transform="rotate(-14.66952762070977 338 361)" font-family="Cairo, sans-serif" font-weight="800" font-size="22" fill="#2E5C89" opacity="0.045" letter-spacing="2">READING</text><text x="589" y="355" transform="rotate(-12.636517134827823 589 355)" font-family="Cairo, sans-serif" font-weight="800" font-size="22" fill="#2E5C89" opacity="0.045" letter-spacing="2">WRITING</text><text x="857" y="352" transform="rotate(-12.08083392967251 857 352)" font-family="Cairo, sans-serif" font-weight="800" font-size="22" fill="#2E5C89" opacity="0.045" letter-spacing="2">OXFORD</text><text x="-210" y="455" transform="rotate(-15.210789801557173 -210 455)" font-family="Cairo, sans-serif" font-weight="800" font-size="22" fill="#2E5C89" opacity="0.045" letter-spacing="2">UNIVERSITY</text><text x="66" y="422" transform="rotate(-12.491373328243586 66 422)" font-family="Cairo, sans-serif" font-weight="800" font-size="22" fill="#2E5C89" opacity="0.045" letter-spacing="2">Q: SKILLS</text><text x="304" y="423" transform="rotate(-15.258052757262465 304 423)" font-family="Cairo, sans-serif" font-weight="800" font-size="22" fill="#2E5C89" opacity="0.045" letter-spacing="2">ENGLISH</text><text x="566" y="458" transform="rotate(-9.332383633095738 566 458)" font-family="Cairo, sans-serif" font-weight="800" font-size="22" fill="#2E5C89" opacity="0.045" letter-spacing="2">UNIVERSITY</text><text x="851" y="428" transform="rotate(-9.10370758554275 851 428)" font-family="Cairo, sans-serif" font-weight="800" font-size="22" fill="#2E5C89" opacity="0.045" letter-spacing="2">UNIVERSITY</text><text x="-188" y="538" transform="rotate(-10.190278395466713 -188 538)" font-family="Cairo, sans-serif" font-weight="800" font-size="22" fill="#2E5C89" opacity="0.045" letter-spacing="2">ENGLISH</text><text x="69" y="537" transform="rotate(-10.803767054100998 69 537)" font-family="Cairo, sans-serif" font-weight="800" font-size="22" fill="#2E5C89" opacity="0.045" letter-spacing="2">ENGLISH</text><text x="333" y="519" transform="rotate(-13.415504955106258 333 519)" font-family="Cairo, sans-serif" font-weight="800" font-size="22" fill="#2E5C89" opacity="0.045" letter-spacing="2">LISTENING</text><text x="562" y="522" transform="rotate(-15.800777625585265 562 522)" font-family="Cairo, sans-serif" font-weight="800" font-size="22" fill="#2E5C89" opacity="0.045" letter-spacing="2">UNIVERSITY</text><text x="827" y="528" transform="rotate(-9.190282770464087 827 528)" font-family="Cairo, sans-serif" font-weight="800" font-size="22" fill="#2E5C89" opacity="0.045" letter-spacing="2">OXFORD</text><text x="-205" y="618" transform="rotate(-15.630112910434853 -205 618)" font-family="Cairo, sans-serif" font-weight="800" font-size="22" fill="#2E5C89" opacity="0.045" letter-spacing="2">READING</text><text x="75" y="606" transform="rotate(-14.698932965397756 75 606)" font-family="Cairo, sans-serif" font-weight="800" font-size="22" fill="#2E5C89" opacity="0.045" letter-spacing="2">SPEAKING</text><text x="330" y="609" transform="rotate(-11.238937890489701 330 609)" font-family="Cairo, sans-serif" font-weight="800" font-size="22" fill="#2E5C89" opacity="0.045" letter-spacing="2">ENGLISH</text><text x="572" y="622" transform="rotate(-15.362034583599943 572 622)" font-family="Cairo, sans-serif" font-weight="800" font-size="22" fill="#2E5C89" opacity="0.045" letter-spacing="2">WRITING</text><text x="832" y="627" transform="rotate(-8.109811300277656 832 627)" font-family="Cairo, sans-serif" font-weight="800" font-size="22" fill="#2E5C89" opacity="0.045" letter-spacing="2">LISTENING</text></g>
<g><g transform="translate(700 315) scale(0.9) rotate(-8)" opacity="0.035"><path d="M12 3L1 9l11 6 11-6-11-6zM1 14l11 6 11-6M1 9v5l11 6 11-6V9" fill="none" stroke="#0d2f56" stroke-width="1.5" stroke-linejoin="round"/></g><g transform="translate(474 534) scale(0.9) rotate(-8)" opacity="0.035"><path d="M12 3L1 9l11 6 11-6-11-6zM1 14l11 6 11-6M1 9v5l11 6 11-6V9" fill="none" stroke="#0d2f56" stroke-width="1.5" stroke-linejoin="round"/></g><g transform="translate(739 433) scale(0.9) rotate(-8)" opacity="0.035"><path d="M12 3L1 9l11 6 11-6-11-6zM1 14l11 6 11-6M1 9v5l11 6 11-6V9" fill="none" stroke="#0d2f56" stroke-width="1.5" stroke-linejoin="round"/></g><g transform="translate(458 568) scale(0.9) rotate(-8)" opacity="0.035"><path d="M12 3L1 9l11 6 11-6-11-6zM1 14l11 6 11-6M1 9v5l11 6 11-6V9" fill="none" stroke="#0d2f56" stroke-width="1.5" stroke-linejoin="round"/></g><g transform="translate(213 272) scale(0.9) rotate(-8)" opacity="0.035"><path d="M12 3L1 9l11 6 11-6-11-6zM1 14l11 6 11-6M1 9v5l11 6 11-6V9" fill="none" stroke="#0d2f56" stroke-width="1.5" stroke-linejoin="round"/></g><g transform="translate(611 373) scale(0.9) rotate(-8)" opacity="0.035"><path d="M12 3L1 9l11 6 11-6-11-6zM1 14l11 6 11-6M1 9v5l11 6 11-6V9" fill="none" stroke="#0d2f56" stroke-width="1.5" stroke-linejoin="round"/></g><g transform="translate(118 7) scale(0.9) rotate(-8)" opacity="0.035"><path d="M12 3L1 9l11 6 11-6-11-6zM1 14l11 6 11-6M1 9v5l11 6 11-6V9" fill="none" stroke="#0d2f56" stroke-width="1.5" stroke-linejoin="round"/></g><g transform="translate(214 434) scale(0.9) rotate(-8)" opacity="0.035"><path d="M12 3L1 9l11 6 11-6-11-6zM1 14l11 6 11-6M1 9v5l11 6 11-6V9" fill="none" stroke="#0d2f56" stroke-width="1.5" stroke-linejoin="round"/></g><g transform="translate(624 418) scale(0.9) rotate(-8)" opacity="0.035"><path d="M12 3L1 9l11 6 11-6-11-6zM1 14l11 6 11-6M1 9v5l11 6 11-6V9" fill="none" stroke="#0d2f56" stroke-width="1.5" stroke-linejoin="round"/></g><g transform="translate(391 204) scale(0.9) rotate(-8)" opacity="0.035"><path d="M12 3L1 9l11 6 11-6-11-6zM1 14l11 6 11-6M1 9v5l11 6 11-6V9" fill="none" stroke="#0d2f56" stroke-width="1.5" stroke-linejoin="round"/></g><g transform="translate(71 433) scale(0.9) rotate(-8)" opacity="0.035"><path d="M12 3L1 9l11 6 11-6-11-6zM1 14l11 6 11-6M1 9v5l11 6 11-6V9" fill="none" stroke="#0d2f56" stroke-width="1.5" stroke-linejoin="round"/></g><g transform="translate(91 56) scale(0.9) rotate(-8)" opacity="0.035"><path d="M12 3L1 9l11 6 11-6-11-6zM1 14l11 6 11-6M1 9v5l11 6 11-6V9" fill="none" stroke="#0d2f56" stroke-width="1.5" stroke-linejoin="round"/></g><g transform="translate(356 260) scale(0.9) rotate(-8)" opacity="0.035"><path d="M12 3L1 9l11 6 11-6-11-6zM1 14l11 6 11-6M1 9v5l11 6 11-6V9" fill="none" stroke="#0d2f56" stroke-width="1.5" stroke-linejoin="round"/></g><g transform="translate(368 467) scale(0.9) rotate(-8)" opacity="0.035"><path d="M12 3L1 9l11 6 11-6-11-6zM1 14l11 6 11-6M1 9v5l11 6 11-6V9" fill="none" stroke="#0d2f56" stroke-width="1.5" stroke-linejoin="round"/></g><g transform="translate(434 198) scale(0.9) rotate(-8)" opacity="0.035"><path d="M12 3L1 9l11 6 11-6-11-6zM1 14l11 6 11-6M1 9v5l11 6 11-6V9" fill="none" stroke="#0d2f56" stroke-width="1.5" stroke-linejoin="round"/></g></g>
</svg>